<?xml version="1.0" encoding="utf-8"?>
<!-- Generator: Adobe Illustrator 24.3.0, SVG Export Plug-In . SVG Version: 6.00 Build 0)  -->
<svg version="1.1" id="Capa_1" xmlns="http://www.w3.org/2000/svg" xmlns:xlink="http://www.w3.org/1999/xlink" x="0px" y="0px"
	 viewBox="0 0 512 512" style="enable-background:new 0 0 512 512;" xml:space="preserve">
<style type="text/css">
	.st0{fill:#FFFFFF;}
	.st1{fill:none;stroke:#FFFFFF;stroke-width:9;stroke-miterlimit:10;}
</style>
<g>
	<g>
		<rect x="112" y="176" class="st0" width="64.4" height="198"/>
	</g>
</g>
<g>
	<g>
		<path class="st0" d="M351.8,178.3c-0.7-0.2-1.3-0.4-2.1-0.6c-0.9-0.2-1.7-0.4-2.6-0.5c-3.4-0.7-7.2-1.2-11.6-1.2
			c-37.5,0-61.4,27.3-69.2,37.9V176H202v198h64.4V266c0,0,48.7-67.8,69.2-18c0,44.4,0,126,0,126H400V240.4
			C400,210.5,379.5,185.5,351.8,178.3z"/>
	</g>
</g>
<g>
	<g>
		<circle class="st0" cx="143.5" cy="117.5" r="31.5"/>
	</g>
</g>
<circle class="st1" cx="251.6" cy="244.3" r="238"/>
</svg>
